# xmcd
# 
# Track frame offsets:
#     150
#     21492
#     39740
#     54852
#     74805
#     90542
#     105880
#     126307
#     140017
#     156697
#     176750
#     196230
#     211332
#     226522
#     245015
#     265552
#     282710
# 
# Disc length: 4022
# 
# Revision: 5
# Processed by: cddbd v1.5.2PL0 Copyright (c) Steve Scherf et al.
# Submitted via: BonkEnc v1.0beta4
# 
DISCID=fe0fb411
DTITLE=Various Artist - Totally Country Vol. 2
DYEAR=2002
DGENRE=Country
TTITLE0=Travis Tritt - Modern Day Bonnie And Clyde
TTITLE1=Chris Cagle - I Breathe In, I Breathe Out
TTITLE2=Trick Pony - Just What I Do
TTITLE3=Montgomery Gentry - My Town
TTITLE4=Phil Vassar - That's When I Love You
TTITLE5=George Strait - The Best Day
TTITLE6=Keith Urban - But For The Grace Of God
TTITLE7=Tracy Byrd - Ten Rounds With Jose Cuervo
TTITLE8=Blake Shelton - Ol' Red
TTITLE9=Tammy Cochran - Life Happened
TTITLE10=Gary Allan - The One
TTITLE11=Mark Chesnutt - She Was
TTITLE12=Brad Paisley - Wrapped Around
TTITLE13=Joe Nichols - The Impossible
TTITLE14=Carolyn Dawn Johnson - I Don't Want You To Go
TTITLE15=Rascal Flatts - I'm Moving On
TTITLE16=Lee Ann Womack - Ashes By Now
EXTD=YEAR: 2002 ID3G: 2
EXTT0=
EXTT1=
EXTT2=
EXTT3=
EXTT4=
EXTT5=
EXTT6=
EXTT7=
EXTT8=
EXTT9=
EXTT10=
EXTT11=
EXTT12=
EXTT13=
EXTT14=
EXTT15=
EXTT16=
PLAYORDER=
